<?xml version="1.0" encoding="UTF-8"?><svg id="Layer_2" xmlns="http://www.w3.org/2000/svg" viewBox="0 0 1050.16 991"><defs><style>.cls-1{fill:lime;stroke-width:0px;}</style></defs><path class="cls-1" d="M261.94,124.02h788.21l-261.94,742.97H0L261.94,124.02ZM161.33,838.41l41.08-116.09h-119.66l-41.08,116.09h119.66ZM212.53,694.93l40.48-115.49h-120.26l-40.48,115.49h120.26ZM262.54,552.65l41.08-115.49h-120.26l-41.08,115.49h120.26ZM312.55,838.41l41.08-116.09h-122.04l-41.08,116.09h122.04ZM313.14,410.37l40.48-114.9h-120.85l-40.48,114.9h120.85ZM363.74,694.93l40.48-115.49h-122.04l-40.48,115.49h122.04ZM363.15,268.09l41.08-115.49h-120.85l-40.48,115.49h120.26ZM413.75,552.65l41.08-115.49h-122.04l-41.08,115.49h122.04ZM463.76,838.41l41.08-116.09h-122.04l-41.08,116.09h122.04ZM464.35,410.37l40.48-114.9h-122.04l-40.48,114.9h122.04ZM514.36,268.09l41.08-115.49h-122.04l-41.08,115.49h122.04ZM514.96,694.93l40.48-115.49h-122.04l-40.48,115.49h122.04ZM564.97,552.65l41.08-115.49h-122.04l-41.08,115.49h122.04ZM614.38,838.41l41.08-116.09h-121.45l-41.08,116.09h121.45ZM615.57,410.37l40.48-114.9h-122.04l-40.48,114.9h122.04ZM665.58,268.09l41.08-115.49h-122.04l-41.08,115.49h122.04ZM665.58,694.93l40.48-115.49h-121.45l-40.48,115.49h121.45ZM715.58,552.65l41.08-115.49h-121.45l-41.08,115.49h121.45ZM767.38,838.41l41.08-116.09h-123.83l-41.08,116.09h123.83ZM766.19,410.37l40.48-114.9h-121.45l-40.48,114.9h121.45ZM816.19,268.09l41.08-115.49h-121.45l-41.08,115.49h121.45ZM817.98,694.93l40.48-115.49h-123.23l-40.48,115.49h123.23ZM867.99,552.65l41.08-115.49h-123.23l-41.08,115.49h123.23ZM917.99,410.37l40.48-114.9h-122.64l-40.48,114.9h122.64ZM968.6,268.09l40.48-115.49h-122.64l-41.08,115.49h123.23Z"/></svg>