<?xml version="1.0" encoding="UTF-8"?><svg id="Layer_2" xmlns="http://www.w3.org/2000/svg" viewBox="0 0 1050.16 1512"><defs><style>.cls-1{fill:lime;stroke-width:0px;}</style></defs><path class="cls-1" d="M415.33,0h330.75l-111.25,312h-330.75L415.33,0ZM627.33,300.25l16.25-45.25h-307.25l-16,45.25h307ZM649.08,239.5l16-45.5h-307l-16.25,45.5h307.25ZM670.58,178.75l16.25-45.5h-307.25l-16.25,45.5h307.25ZM692.08,118l16.25-45.5h-307.25l-16,45.5h307ZM713.83,57l16-45.25h-307l-16.25,45.25h307.25Z"/><path class="cls-1" d="M415.08,600h331l-110,312h-331l110-312ZM372.83,900l17.25-48.75h-50.25l-17.25,48.75h50.25ZM394.33,839.75l17-48.5h-50.5l-17,48.5h50.5ZM415.33,780l17.25-48.5h-50.5l-17.25,48.5h50.5ZM436.33,900l17.25-48.75h-51.25l-17.25,48.75h51.25ZM436.58,720.25l17-48.25h-50.75l-17,48.25h50.75ZM457.83,839.75l17-48.5h-51.25l-17,48.5h51.25ZM457.58,660.5l17.25-48.5h-50.75l-17,48.5h50.5ZM478.83,780l17.25-48.5h-51.25l-17.25,48.5h51.25ZM499.83,900l17.25-48.75h-51.25l-17.25,48.75h51.25ZM500.08,720.25l17-48.25h-51.25l-17,48.25h51.25ZM521.08,660.5l17.25-48.5h-51.25l-17.25,48.5h51.25ZM521.33,839.75l17-48.5h-51.25l-17,48.5h51.25ZM542.33,780l17.25-48.5h-51.25l-17.25,48.5h51.25ZM563.08,900l17.25-48.75h-51l-17.25,48.75h51ZM563.58,720.25l17-48.25h-51.25l-17,48.25h51.25ZM584.58,660.5l17.25-48.5h-51.25l-17.25,48.5h51.25ZM584.58,839.75l17-48.5h-51l-17,48.5h51ZM605.58,780l17.25-48.5h-51l-17.25,48.5h51ZM627.33,900l17.25-48.75h-52l-17.25,48.75h52ZM626.83,720.25l17-48.25h-51l-17,48.25h51ZM647.83,660.5l17.25-48.5h-51l-17.25,48.5h51ZM648.58,839.75l17-48.5h-51.75l-17,48.5h51.75ZM669.58,780l17.25-48.5h-51.75l-17.25,48.5h51.75ZM690.58,720.25l17-48.25h-51.5l-17,48.25h51.5ZM711.83,660.5l17-48.5h-51.5l-17.25,48.5h51.75Z"/><path class="cls-1" d="M415.33,1200h330.75l-111.25,312h-330.75l111.25-312ZM369.08,1500.25l102.5-288.5h-48.75l-102.5,288.5h48.75ZM433.83,1500.25l102.75-288.5h-49l-102.5,288.5h48.75ZM498.58,1500.25l102.5-288.5h-49l-102.5,288.5h49ZM563.08,1500.25l102.5-288.5h-48.75l-102.75,288.5h49ZM627.58,1500.25l102.5-288.5h-49l-102.5,288.5h49Z"/></svg>